<?xml version="1.0" encoding="UTF-8"?>
<svg width="154px" height="531px" viewBox="0 0 154 531" version="1.1" xmlns="http://www.w3.org/2000/svg" xmlns:xlink="http://www.w3.org/1999/xlink">
    <!-- Generator: Sketch 42 (36781) - http://www.bohemiancoding.com/sketch -->
    <title>Unique</title>
    <desc>Created with Sketch.</desc>
    <defs></defs>
    <g id="Page-1" stroke="none" stroke-width="1" fill="none" fill-rule="evenodd">
        <path d="M-83.734375,199.71875 C-87.015625,200.03125 -92.5625,200.1875 -97.640625,200.1875 C-103.34375,200.1875 -110.765625,200.03125 -114.90625,199.71875 L-114.90625,202.921875 C-101.46875,204.328125 -99.359375,208.390625 -99.359375,225.96875 L-99.359375,268.234375 C-99.359375,292.53125 -105.921875,309.640625 -128.5,309.640625 C-145.53125,309.640625 -150.609375,298.46875 -150.609375,277.0625 L-150.609375,216.671875 C-150.609375,205.03125 -148.5,203.390625 -137.640625,202.921875 L-137.640625,199.71875 C-143.578125,200.03125 -153.34375,200.1875 -162.953125,200.1875 C-172.875,200.1875 -182.5625,200.03125 -188.03125,199.71875 L-188.03125,202.921875 C-177.796875,203.390625 -176,205.03125 -176,216.671875 L-176,266.90625 C-176,287.453125 -173.8125,298.859375 -163.421875,307.140625 C-155.53125,313.46875 -144.59375,315.265625 -134.59375,315.265625 C-118.34375,315.265625 -107.71875,309.484375 -102.25,300.34375 C-97.25,291.984375 -95.6875,280.34375 -95.6875,266.4375 L-95.6875,224.015625 C-95.6875,208.546875 -93.890625,204.328125 -83.734375,202.921875 L-83.734375,199.71875 Z M-18.0111609,228 C-29.2611609,228 -38.7924109,232.0625 -44.1049109,242.921875 L-44.1049109,228.46875 C-50.8236609,230.03125 -58.5580359,230.734375 -67.4642859,230.734375 C-70.6674109,230.734375 -74.0267859,230.5 -77.3861609,230.1875 L-77.3861609,233.546875 C-69.6517859,233.546875 -67.1517859,238.078125 -67.1517859,247.6875 L-67.1517859,298.15625 C-67.1517859,307.0625 -69.9642859,309.640625 -77.3861609,309.640625 L-77.3861609,313 C-73.1674109,312.84375 -63.5580359,312.375 -55.3549109,312.375 C-47.5424109,312.375 -39.2611609,312.84375 -35.5111609,313 L-35.5111609,309.640625 C-41.8392859,309.640625 -44.1049109,307.0625 -44.1049109,298.15625 L-44.1049109,253.546875 C-44.1049109,243 -37.2299109,235.03125 -28.2455359,235.03125 C-20.2767859,235.03125 -18.4017859,240.421875 -18.4017859,248.390625 L-18.4017859,298.15625 C-18.4017859,307.0625 -20.6674109,309.640625 -26.9955359,309.640625 L-26.9955359,313 C-23.0892859,312.84375 -14.4174109,312.375 -6.21428585,312.375 C1.59821415,312.375 10.8169641,312.84375 14.8794641,313 L14.8794641,309.640625 C7.45758915,309.640625 4.64508915,307.0625 4.64508915,298.15625 L4.64508915,255.03125 C4.64508915,244.171875 3.16071415,238.3125 -0.354910851,234.25 C-3.63616085,230.5 -8.87053585,228 -18.0111609,228 Z M43.8058033,188.9375 C34.8214283,188.9375 29.1964283,193.625 29.1964283,201.28125 C29.1964283,209.015625 34.8214283,213.703125 43.8058033,213.703125 C52.6339283,213.703125 58.3370533,209.015625 58.3370533,201.28125 C58.3370533,193.625 52.6339283,188.9375 43.8058033,188.9375 Z M56.3839283,228.46875 C49.6651783,230.03125 41.9308033,230.734375 33.0245533,230.734375 C29.8214283,230.734375 26.4620533,230.5 23.1026783,230.1875 L23.1026783,233.546875 C30.8370533,233.546875 33.3370533,238.078125 33.3370533,247.6875 L33.3370533,298.15625 C33.3370533,307.0625 30.5245533,309.640625 23.1026783,309.640625 L23.1026783,313 C27.3214283,312.84375 36.9308033,312.375 45.2120533,312.375 C53.5714283,312.375 62.5558033,312.84375 66.6183033,313 L66.6183033,309.640625 C59.1183033,309.640625 56.3839283,307.0625 56.3839283,298.15625 L56.3839283,228.46875 Z M154.450892,238.078125 L154.450892,327.6875 C154.450892,336.203125 157.029017,338.625 163.982142,338.625 L163.982142,341.984375 C160.075892,341.828125 151.716517,341.28125 143.825892,341.28125 C133.044642,341.28125 122.419642,341.828125 116.950892,341.984375 L116.950892,338.625 C126.013392,338.625 131.404017,336.046875 131.404017,326.125 L131.404017,300.34375 C127.732142,310.109375 120.544642,315.265625 110.700892,315.265625 C92.3415174,315.265625 77.9665174,301.828125 77.9665174,271.28125 C77.9665174,242.296875 92.4196424,228 112.966517,228 C121.404017,228 127.732142,229.640625 132.810267,234.5625 C140.466517,234.875 148.825892,231.828125 153.122767,227.6875 L155.544642,229.09375 C154.607142,231.90625 154.450892,234.953125 154.450892,238.078125 Z M117.341517,308.3125 C123.747767,308.3125 129.763392,303.234375 131.404017,294.5625 L131.404017,236.359375 C128.200892,232.921875 123.591517,231.359375 118.904017,231.359375 C107.888392,231.359375 102.107142,244.5625 102.107142,271.59375 C102.107142,298.859375 108.122767,308.3125 117.341517,308.3125 Z M251.345982,228.46875 C244.705357,230.03125 236.892857,230.734375 227.986607,230.734375 C224.783482,230.734375 221.424107,230.5 218.064732,230.1875 L218.064732,233.546875 C225.799107,233.546875 228.299107,238.078125 228.299107,247.6875 L228.299107,289.71875 C228.299107,300.265625 221.267857,308.234375 212.752232,308.234375 C204.783482,308.234375 203.220982,302.765625 203.220982,294.796875 L203.220982,228.46875 C196.502232,230.03125 188.767857,230.734375 179.861607,230.734375 C176.658482,230.734375 173.299107,230.5 169.939732,230.1875 L169.939732,233.546875 C177.674107,233.546875 180.174107,238.078125 180.174107,247.6875 L180.174107,288.234375 C180.174107,298.78125 181.502232,304.953125 185.017857,308.9375 C188.377232,312.6875 193.689732,315.265625 202.517857,315.265625 C213.533482,315.265625 223.064732,311.046875 228.299107,300.34375 L228.299107,314.796875 C234.939732,313.234375 242.752232,312.609375 251.658482,312.609375 C254.861607,312.609375 258.220982,312.765625 261.580357,313.078125 L261.580357,309.71875 C253.845982,309.71875 251.345982,305.1875 251.345982,295.65625 L251.345982,228.46875 Z M317.928571,302.0625 C324.334821,302.0625 332.459821,299.875 338.944196,289.25 L341.834821,290.34375 C338.006696,302.375 327.537946,315.265625 309.803571,315.265625 C288.241071,315.265625 272.928571,301.671875 272.928571,272.453125 C272.928571,242.765625 289.334821,228 312.069196,228 C330.741071,228 342.147321,238.46875 342.147321,263.546875 L297.381696,263.546875 C297.147321,265.890625 297.069196,268.546875 297.069196,271.125 C297.069196,293.390625 307.772321,302.0625 317.928571,302.0625 Z M311.131696,231.4375 C303.944196,231.4375 298.241071,239.796875 296.912946,260.5 L321.991071,260.5 C322.303571,244.875 318.944196,231.4375 311.131696,231.4375 Z" id="Unique" fill="#FFFFFF" transform="translate(77.058035, 265.460938) rotate(-90.000000) translate(-77.058035, -265.460938) "></path>
    </g>
</svg>