<?xml version="1.0" encoding="UTF-8"?>
<svg width="156px" height="564px" viewBox="0 0 156 564" version="1.1" xmlns="http://www.w3.org/2000/svg" xmlns:xlink="http://www.w3.org/1999/xlink">
    <!-- Generator: Sketch 42 (36781) - http://www.bohemiancoding.com/sketch -->
    <title>Elegant</title>
    <desc>Created with Sketch.</desc>
    <defs></defs>
    <g id="Page-1" stroke="none" stroke-width="1" fill="none" fill-rule="evenodd">
        <path d="M-116.453125,305.203125 C-116.453125,299.96875 -116.296875,295.203125 -115.984375,291.765625 L-119.65625,291.765625 C-123.640625,317.546875 -133.484375,325.828125 -147.78125,325.828125 L-155.671875,325.828125 C-164.96875,325.828125 -166.6875,324.421875 -166.6875,314.421875 L-166.6875,274.109375 L-161.53125,274.109375 C-148.71875,274.109375 -143.640625,284.03125 -142,295.28125 L-138.328125,295.28125 C-139.109375,283.09375 -139.265625,277.78125 -139.265625,272.546875 C-139.265625,270.203125 -139.34375,267.859375 -139.34375,264.890625 C-139.34375,261.21875 -139.265625,256.609375 -138.796875,249.8125 L-142.46875,249.8125 C-144.1875,258.484375 -148.71875,270.90625 -161.53125,270.90625 L-166.6875,270.90625 L-166.6875,231.296875 C-166.6875,221.296875 -164.96875,219.890625 -155.671875,219.890625 L-149.109375,219.890625 C-134.421875,219.890625 -126.0625,227.3125 -122.859375,250.75 L-119.1875,250.75 C-119.5,248.171875 -119.65625,244.109375 -119.65625,239.890625 C-119.65625,235.28125 -119.34375,225.671875 -118.5625,216.21875 C-128.40625,216.6875 -142.234375,216.6875 -152,216.6875 C-162.703125,216.6875 -186.6875,216.6875 -204.109375,216.21875 L-204.109375,219.421875 C-194.03125,219.890625 -192.15625,221.53125 -192.15625,233.171875 L-192.15625,312.546875 C-192.15625,324.1875 -193.953125,325.828125 -204.109375,326.296875 L-204.109375,329.5 C-186.6875,329.03125 -162.703125,329.03125 -152,329.03125 C-141.21875,329.03125 -126.21875,329.03125 -115.359375,329.5 C-116.296875,319.890625 -116.453125,309.96875 -116.453125,305.203125 Z M-69.4017859,204.265625 C-76.0424109,205.828125 -83.8549109,206.453125 -92.7611609,206.453125 C-95.9642859,206.453125 -99.3236609,206.296875 -102.683036,205.984375 L-102.683036,209.34375 C-94.9486609,209.34375 -92.4486609,213.875 -92.4486609,223.484375 L-92.4486609,314.65625 C-92.4486609,323.5625 -95.1830359,326.140625 -102.683036,326.140625 L-102.683036,329.5 C-98.3861609,329.34375 -88.8549109,328.875 -80.4955359,328.875 C-72.2142859,328.875 -63.2299109,329.34375 -59.1674109,329.5 L-59.1674109,326.140625 C-66.5892859,326.140625 -69.4017859,323.5625 -69.4017859,314.65625 L-69.4017859,204.265625 Z M-4.3816967,318.5625 C2.0245533,318.5625 10.1495533,316.375 16.6339283,305.75 L19.5245533,306.84375 C15.6964283,318.875 5.2276783,331.765625 -12.5066967,331.765625 C-34.0691967,331.765625 -49.3816967,318.171875 -49.3816967,288.953125 C-49.3816967,259.265625 -32.9754467,244.5 -10.2410717,244.5 C8.4308033,244.5 19.8370533,254.96875 19.8370533,280.046875 L-24.9285717,280.046875 C-25.1629467,282.390625 -25.2410717,285.046875 -25.2410717,287.625 C-25.2410717,309.890625 -14.5379467,318.5625 -4.3816967,318.5625 Z M-11.1785717,247.9375 C-18.3660717,247.9375 -24.0691967,256.296875 -25.3973217,277 L-0.319196701,277 C-0.00669670105,261.375 -3.3660717,247.9375 -11.1785717,247.9375 Z M54.1540174,309.03125 L90.9508924,309.03125 C102.591517,309.03125 112.591517,313.171875 112.591517,326.21875 C112.591517,341.609375 98.0602674,359.578125 66.2633924,359.578125 C42.1227674,359.578125 30.7946424,353.40625 30.7946424,345.75 C30.7946424,335.59375 46.4977674,336.21875 55.0133924,330.359375 L51.2633924,330.359375 C45.1696424,330.359375 33.3727674,328.25 33.3727674,315.515625 C33.3727674,306.453125 38.5290174,300.203125 53.7633924,293.015625 C43.0602674,289.5 36.1852674,282 36.1852674,269.96875 C36.1852674,252.3125 50.8727674,244.5 70.5602674,244.5 C74.7790174,244.5 78.8415174,244.890625 82.5133924,245.59375 C82.3571424,242.9375 82.5133924,240.28125 83.0602674,237.703125 C84.0758924,229.34375 88.6852674,222.9375 98.2165174,222.9375 C105.013392,222.9375 109.857142,226.6875 109.857142,232.703125 C109.857142,238.09375 105.169642,242 98.9196424,242 C92.1227674,242 88.9977674,238.640625 86.9665174,233.015625 C85.8727674,234.890625 85.0915174,237.625 84.6227674,241.140625 C84.5446424,241.921875 84.5446424,242.703125 84.5446424,243.484375 C84.5446424,244.34375 84.5446424,245.203125 84.6227674,246.0625 C96.8883924,249.1875 105.013392,256.84375 105.013392,269.96875 C105.013392,287.546875 90.2477674,295.4375 70.5602674,295.4375 C65.5602674,295.4375 60.8727674,294.96875 56.7321424,293.875 C51.3415174,297.078125 47.5915174,299.65625 47.5915174,303.71875 C47.5915174,307.390625 49.8571424,309.03125 54.1540174,309.03125 Z M70.5602674,247.390625 C63.9196424,247.390625 59.8571424,252.859375 59.8571424,269.96875 C59.8571424,287.078125 63.9196424,292.546875 70.5602674,292.546875 C77.2008924,292.546875 81.2633924,287.078125 81.2633924,269.96875 C81.2633924,252.859375 77.2008924,247.390625 70.5602674,247.390625 Z M70.5602674,356.84375 C83.4508924,356.84375 94.7790174,349.578125 94.7790174,337 C94.7790174,332.703125 92.8258924,330.359375 85.5602674,330.359375 L58.0602674,330.359375 C54.3102674,333.953125 52.5915174,339.578125 52.5915174,343.015625 C52.5915174,352.15625 60.4821424,356.84375 70.5602674,356.84375 Z M158.861607,244.5 C169.174107,244.5 177.142857,246.375 182.299107,251.6875 C186.986607,256.53125 188.002232,262.9375 188.002232,274.109375 L188.002232,317.625 C188.002232,322.78125 188.861607,324.734375 191.439732,324.734375 C193.705357,324.734375 195.502232,323.40625 197.299107,322 L198.939732,324.734375 C194.095982,328.640625 188.783482,330.59375 180.658482,330.59375 C168.939732,330.59375 165.345982,324.5 165.267857,317.625 C159.799107,326.609375 150.658482,330.59375 141.674107,330.59375 C129.720982,330.59375 121.439732,324.03125 121.439732,312.390625 C121.439732,300.828125 129.095982,294.34375 143.939732,288.875 C155.736607,284.421875 164.955357,281.375 164.955357,274.5 L164.955357,262 C164.955357,253.640625 161.361607,247.703125 151.908482,247.703125 C148.080357,247.703125 143.392857,248.796875 140.502232,251.609375 C146.205357,253.5625 149.955357,257.703125 149.955357,264.1875 C149.955357,270.828125 144.799107,275.671875 136.908482,275.671875 C129.955357,275.671875 125.580357,270.359375 125.580357,263.328125 C125.580357,257.46875 129.330357,253.015625 134.564732,249.96875 C140.267857,246.765625 148.080357,244.5 158.861607,244.5 Z M164.955357,313.875 L164.955357,281.0625 C163.470982,283.484375 160.424107,285.59375 155.033482,288.953125 C149.408482,293.09375 144.174107,298.328125 144.174107,307.9375 C144.174107,316.765625 148.470982,320.359375 154.174107,320.359375 C158.080357,320.359375 161.595982,318.640625 164.955357,313.875 Z M265.209821,244.5 C253.959821,244.5 244.428571,248.5625 239.116071,259.421875 L239.116071,244.96875 C232.397321,246.53125 224.662946,247.234375 215.756696,247.234375 C212.553571,247.234375 209.194196,247 205.834821,246.6875 L205.834821,250.046875 C213.569196,250.046875 216.069196,254.578125 216.069196,264.1875 L216.069196,314.65625 C216.069196,323.5625 213.256696,326.140625 205.834821,326.140625 L205.834821,329.5 C210.053571,329.34375 219.662946,328.875 227.866071,328.875 C235.678571,328.875 243.959821,329.34375 247.709821,329.5 L247.709821,326.140625 C241.381696,326.140625 239.116071,323.5625 239.116071,314.65625 L239.116071,270.046875 C239.116071,259.5 245.991071,251.53125 254.975446,251.53125 C262.944196,251.53125 264.819196,256.921875 264.819196,264.890625 L264.819196,314.65625 C264.819196,323.5625 262.553571,326.140625 256.225446,326.140625 L256.225446,329.5 C260.131696,329.34375 268.803571,328.875 277.006696,328.875 C284.819196,328.875 294.037946,329.34375 298.100446,329.5 L298.100446,326.140625 C290.678571,326.140625 287.866071,323.5625 287.866071,314.65625 L287.866071,271.53125 C287.866071,260.671875 286.381696,254.8125 282.866071,250.75 C279.584821,247 274.350446,244.5 265.209821,244.5 Z M338.745535,246.84375 L338.745535,220.515625 C332.10491,224.109375 324.683035,225.59375 315.69866,225.671875 L315.69866,246.84375 L302.26116,246.84375 L302.26116,250.046875 L315.69866,250.046875 L315.69866,304.03125 C315.69866,315.203125 316.870535,321.6875 321.47991,326.375 C325.07366,329.96875 330.308035,331.765625 337.495535,331.765625 C349.29241,331.765625 355.85491,324.890625 359.370535,315.359375 L356.714285,313.875 C353.589285,320.984375 349.683035,323.484375 345.776785,323.484375 C341.089285,323.484375 338.745535,321.140625 338.745535,314.578125 L338.745535,250.046875 L357.651785,250.046875 L357.651785,246.84375 L338.745535,246.84375 Z" id="Elegant" fill="#FFFFFF" transform="translate(77.630580, 281.921875) rotate(-90.000000) translate(-77.630580, -281.921875) "></path>
    </g>
</svg>