<svg xmlns="http://www.w3.org/2000/svg" width="7.969" height="85.188" viewBox="0 0 7.969 85.188">
  <metadata><?xpacket begin="﻿" id="W5M0MpCehiHzreSzNTczkc9d"?>
<x:xmpmeta xmlns:x="adobe:ns:meta/" x:xmptk="Adobe XMP Core 5.6-c138 79.159824, 2016/09/14-01:09:01        ">
   <rdf:RDF xmlns:rdf="http://www.w3.org/1999/02/22-rdf-syntax-ns#">
      <rdf:Description rdf:about=""/>
   </rdf:RDF>
</x:xmpmeta>
                                                                                                    
                                                                                                    
                                                                                                    
                                                                                                    
                                                                                                    
                                                                                                    
                                                                                                    
                                                                                                    
                                                                                                    
                                                                                                    
                                                                                                    
                                                                                                    
                                                                                                    
                                                                                                    
                                                                                                    
                                                                                                    
                                                                                                    
                                                                                                    
                                                                                                    
                                                                                                    
                           
<?xpacket end="w"?></metadata>
<defs>
    <style>
      .cls-1 {
        fill: #252537;
        fill-rule: evenodd;
      }
    </style>
  </defs>
  <path id="scroll_down" data-name="scroll down" class="cls-1" d="M843.194,936.087c2.708,0,1.838-4.553,3.907-4.553,0.87,0,1.145.906,1.145,1.965a4.823,4.823,0,0,1-.7,2.555h0.924a5.284,5.284,0,0,0,.661-2.62c0.011-1.463-.562-2.828-2.092-2.828-2.762,0-1.926,4.553-3.874,4.553-0.826,0-1.123-.754-1.123-1.758a4.2,4.2,0,0,1,.606-2.249h-0.925a4.838,4.838,0,0,0-.561,2.315C841.158,934.853,841.818,936.087,843.194,936.087Zm2-6.874a3.888,3.888,0,0,0,3.93-4.007,4.8,4.8,0,0,0-.518-2.217h-0.924a3.474,3.474,0,0,1,.561,2.02,3.108,3.108,0,1,1-6.208.033,3.617,3.617,0,0,1,.562-2h-0.925a4.6,4.6,0,0,0-.517,2.151A3.9,3.9,0,0,0,845.2,929.213Zm3.8-9.1h-3.038v-1.835l3.038-2.5v-1.146l-3.115,2.587a2.2,2.2,0,0,0-2.257-2.041c-1.761,0-2.333,1.484-2.333,2.86v2.992H849v-0.917Zm-6.825,0v-2.119c0-.917.3-1.888,1.453-1.888s1.453,0.971,1.453,1.888v2.119H842.17Zm2.972-6.623a4,4,0,1,0-3.984-4A3.827,3.827,0,0,0,845.142,913.489Zm0-7.064a3.068,3.068,0,1,1-3.1,3.068A2.932,2.932,0,0,1,845.142,906.425Zm-3.852-2.964H849v-5.153h-0.881v4.236H841.29v0.917Zm0-6.863H849v-5.154h-0.881v4.237H841.29V896.6Zm0-9.831H849v-2.512c0-2.7-1.629-4.039-3.853-4.039s-3.852,1.343-3.852,4.039v2.512Zm3.852-5.623c1.849,0,2.972,1.048,2.972,3.111v1.594H842.17v-1.594C842.17,882.192,843.293,881.144,845.142,881.144Zm0-2.462a4,4,0,1,0-3.984-4A3.828,3.828,0,0,0,845.142,878.682Zm0-7.065a3.068,3.068,0,1,1-3.1,3.068A2.932,2.932,0,0,1,845.142,871.617Zm-3.852-11.709,6.582,1.911-6.582,2.03v0.819l6.582,2.031-6.582,1.911v1l7.705-2.4V866.2l-6.164-1.933L849,862.332v-1.027l-7.705-2.4v1ZM849,856.345h-6.164l6.164-4.6V850.9H841.29v0.918h6.153l-6.153,4.6v0.852H849v-0.917Z" transform="translate(-841.156 -850.906)"/>
</svg>
